HIERARCHY
ROOT Hips
{
    OFFSET 0.000000 0.000000 0.000000
    CHANNELS 6 Xposition Yposition Zposition Zrotation Xrotation Yrotation
    JOINT Spine
    {
        OFFSET -0.000000 7.236184 0.000000
        CHANNELS 3 Zrotation Xrotation Yrotation
        JOINT Spine1
        {
            OFFSET -0.000000 20.420147 0.000000
            CHANNELS 3 Zrotation Xrotation Yrotation
            JOINT Neck
            {
                OFFSET -0.000000 20.336288 1.848754
                CHANNELS 3 Zrotation Xrotation Yrotation
                JOINT Head
                {
                    OFFSET -0.000000 12.354461 -1.764923
                    CHANNELS 3 Zrotation Xrotation Yrotation
                    End Site
                    {
                        OFFSET -0.000000 22.061537 0.000000
                    }
                }
            }
            JOINT LeftShoulder
            {
                OFFSET 3.573296 18.396038 -0.314103
                CHANNELS 3 Zrotation Xrotation Yrotation
                JOINT LeftArm
                {
                    OFFSET 10.880760 0.000000 0.000000
                    CHANNELS 3 Zrotation Xrotation Yrotation
                    JOINT LeftForeArm
                    {
                        OFFSET 27.185530 0.000000 0.000000
                        CHANNELS 3 Zrotation Xrotation Yrotation
                        JOINT LeftHand
                        {
                            OFFSET 27.825975 0.000000 0.000000
                            CHANNELS 3 Zrotation Xrotation Yrotation
                            End Site
                            {
                                OFFSET 13.236923 0.000000 0.000000
                            }
                        }
                    }
                }
            }
            JOINT RightShoulder
            {
                OFFSET -3.474926 18.396038 -0.314103
                CHANNELS 3 Zrotation Xrotation Yrotation
                JOINT RightArm
                {
                    OFFSET -10.880760 0.000000 0.000000
                    CHANNELS 3 Zrotation Xrotation Yrotation
                    JOINT RightForeArm
                    {
                        OFFSET -27.185530 0.000000 0.000000
                        CHANNELS 3 Zrotation Xrotation Yrotation
                        JOINT RightHand
                        {
                            OFFSET -27.825975 0.000000 0.000000
                            CHANNELS 3 Zrotation Xrotation Yrotation
                            End Site
                            {
                                OFFSET -13.236923 0.000000 0.000000
                            }
                        }
                    }
                }
            }
        }
    }
    JOINT LeftUpLeg
    {
        OFFSET 8.824615 0.000000 0.000000
        CHANNELS 3 Zrotation Xrotation Yrotation
        JOINT LeftLeg
        {
            OFFSET -0.000000 -35.111282 0.000000
            CHANNELS 3 Zrotation Xrotation Yrotation
            JOINT LeftFoot
            {
                OFFSET -0.000000 -42.324711 0.000000
                CHANNELS 3 Zrotation Xrotation Yrotation
                JOINT LeftToeBase
                {
                    OFFSET -0.000000 -5.735999 13.236923
                    CHANNELS 3 Zrotation Xrotation Yrotation
                    End Site
                    {
                        OFFSET -0.000000 0.000000 3.529846
                    }
                }
            }
        }
    }
    JOINT RightUpLeg
    {
        OFFSET -8.824615 0.000000 0.000000
        CHANNELS 3 Zrotation Xrotation Yrotation
        JOINT RightLeg
        {
            OFFSET -0.000000 -35.111282 0.000000
            CHANNELS 3 Zrotation Xrotation Yrotation
            JOINT RightFoot
            {
                OFFSET -0.000000 -42.324711 0.000000
                CHANNELS 3 Zrotation Xrotation Yrotation
                JOINT RightToeBase
                {
                    OFFSET -0.000000 -5.735999 13.236923
                    CHANNELS 3 Zrotation Xrotation Yrotation
                    End Site
                    {
                        OFFSET -0.000000 0.000000 3.529846
                    }
                }
            }
        }
    }
}
MOTION
Frames:    9
Frame Time:    0.008333
-12.161065    81.258713    109.531227    -0.369953    -6.273469    -174.815842    -1.810914    -10.710042    0.532389    0.659930    6.480285    0.664805    1.503258    9.132400    -4.282792    7.749818    -6.062938    -3.050717    0.598156    17.281549    -3.967768    -39.258797    49.509468    -45.114735    -0.462478    -4.223841    -16.171982    17.534531    -4.090316    1.294026    6.507739    18.502048    -3.367884    32.752842    48.050922    46.558723    -2.377346    -10.782739    17.821804    -20.264149    -9.960497    -2.591022    -1.110439    -12.753677    -6.311997    -0.188991    18.276514    -4.357015    -1.271322    -10.065835    -5.364450    -0.576546    -0.393916    0.639535    -5.694389    -5.664675    0.807555    2.959886    9.113426    5.249036    0.639692    -6.811543    -13.986663    -1.101893    -0.428688    1.192481    
-12.126369    81.260155    109.514603    -0.364651    -6.277490    -174.806854    -1.821063    -10.735311    0.539343    0.660677    6.484403    0.673066    1.479917    9.127060    -4.337929    7.836353    -6.061815    -3.089917    0.550186    17.275978    -3.922351    -39.160866    49.534161    -45.196529    -0.444830    -4.233388    -16.227661    17.626116    -4.096775    1.292591    6.498834    18.503593    -3.345627    32.689453    48.076275    46.638744    -2.284671    -10.649237    17.733667    -20.002348    -9.847496    -2.598315    -1.076984    -12.744461    -6.298395    -0.189000    18.267288    -4.378680    -1.284970    -10.071973    -5.361225    -0.575299    -0.389241    0.638147    -5.670548    -5.614197    0.817199    2.971563    9.034038    5.230582    0.647947    -6.819680    -13.978326    -1.107288    -0.397204    1.198267    
-12.091925    81.261589    109.498047    -0.359211    -6.281418    -174.797852    -1.830811    -10.760224    0.546241    0.661268    6.488574    0.681215    1.456807    9.121755    -4.392581    7.921167    -6.062440    -3.128834    0.503544    17.270149    -3.878783    -39.066833    49.557308    -45.274673    -0.427154    -4.243323    -16.282982    17.712624    -4.103697    1.290738    6.490116    18.505449    -3.323720    32.626358    48.102333    46.717739    -2.193660    -10.520092    17.649176    -19.743340    -9.738064    -2.607356    -1.043499    -12.735085    -6.284931    -0.189138    18.257910    -4.400051    -1.298570    -10.078019    -5.358180    -0.574135    -0.384593    0.636849    -5.646518    -5.564183    0.825875    2.982638    8.955649    5.212902    0.656254    -6.827799    -13.969728    -1.112478    -0.366567    1.203833    
-12.057929    81.262970    109.481522    -0.354285    -6.285242    -174.788864    -1.840574    -10.784689    0.552980    0.661614    6.493166    0.689248    1.433428    9.115836    -4.446585    8.003866    -6.065442    -3.167303    0.459262    17.263716    -3.838255    -38.979717    49.577637    -45.346493    -0.409731    -4.253704    -16.337923    17.790934    -4.111248    1.288429    6.481257    18.507273    -3.302518    32.563938    48.130802    46.794998    -2.105938    -10.398719    17.570621    -19.489046    -9.635507    -2.617111    -1.010751    -12.725304    -6.272111    -0.189631    18.247986    -4.420846    -1.311960    -10.083726    -5.355073    -0.572986    -0.380209    0.635571    -5.623244    -5.514760    0.833364    2.993374    8.878669    5.196464    0.663975    -6.835810    -13.961259    -1.117486    -0.336189    1.209201    
-12.024214    81.264290    109.464882    -0.349658    -6.289022    -174.779785    -1.849965    -10.808785    0.559600    0.661330    6.498214    0.697176    1.409706    9.109351    -4.500105    8.084294    -6.072317    -3.205438    0.417959    17.256683    -3.801574    -38.901642    49.594055    -45.410191    -0.392429    -4.264716    -16.392456    17.858536    -4.119631    1.285635    6.472624    18.509758    -3.282131    32.502460    48.161381    46.870129    -2.021511    -10.286582    17.499634    -19.239655    -9.541440    -2.626574    -0.978382    -12.715014    -6.259926    -0.190483    18.237478    -4.441068    -1.325354    -10.089205    -5.352024    -0.571963    -0.376079    0.634431    -5.600266    -5.465436    0.841264    3.003819    8.802226    5.179440    0.671288    -6.843504    -13.952705    -1.122239    -0.306592    1.214294    
-11.991326    81.265518    109.448288    -0.345570    -6.292515    -174.770737    -1.858798    -10.832183    0.566004    0.660229    6.504061    0.704803    1.385918    9.102325    -4.552245    8.160739    -6.083961    -3.242562    0.381094    17.248926    -3.770196    -38.835571    49.605518    -45.463238    -0.375658    -4.276430    -16.446070    17.912542    -4.128956    1.282737    6.463920    18.512747    -3.262670    32.443878    48.194191    46.940792    -1.942315    -10.187680    17.439203    -18.999489    -9.459690    -2.634365    -0.947014    -12.704025    -6.248914    -0.191880    18.226320    -4.460124    -1.338353    -10.094285    -5.348915    -0.571029    -0.372144    0.633390    -5.578125    -5.417107    0.847188    3.013427    8.728391    5.164140    0.678302    -6.851200    -13.943971    -1.126686    -0.278020    1.219059    
-11.959219    81.266617    109.431602    -0.342195    -6.295464    -174.761703    -1.867030    -10.854315    0.572203    0.658032    6.510393    0.712199    1.362107    9.094610    -4.603070    8.232928    -6.100984    -3.278761    0.348573    17.240274    -3.744143    -38.782051    49.611771    -45.504761    -0.359284    -4.288913    -16.499115    17.951689    -4.139207    1.280150    6.455589    18.516399    -3.244482    32.388794    48.228729    47.005966    -1.867974    -10.103034    17.391077    -18.768467    -9.391480    -2.639236    -0.916846    -12.691981    -6.239151    -0.193647    18.214619    -4.477990    -1.351070    -10.099112    -5.345818    -0.570148    -0.368535    0.632409    -5.557026    -5.369180    0.851856    3.022552    8.656613    5.149657    0.684223    -6.858607    -13.934979    -1.130780    -0.250432    1.223441    
-11.927986    81.267532    109.414825    -0.339611    -6.298119    -174.752670    -1.874422    -10.875523    0.578104    0.654168    6.517423    0.719339    1.338575    9.085841    -4.652337    8.300508    -6.123356    -3.313884    0.321253    17.230978    -3.723557    -38.741779    49.612167    -45.534756    -0.343683    -4.302129    -16.551601    17.976072    -4.150342    1.278362    6.447588    18.520725    -3.227505    32.338768    48.264473    47.064114    -1.798696    -10.034226    17.357216    -18.547132    -9.338547    -2.640085    -0.888228    -12.679164    -6.230742    -0.195522    18.202438    -4.494368    -1.363637    -10.103616    -5.343000    -0.569374    -0.365227    0.631546    -5.537252    -5.322086    0.855044    3.031317    8.587465    5.136812    0.689536    -6.866118    -13.926373    -1.134557    -0.224032    1.227483    
-11.897742    81.268257    109.397865    -0.337893    -6.299780    -174.743576    -1.880908    -10.894988    0.583732    0.648653    6.525004    0.726128    1.315458    9.076423    -4.699811    8.363032    -6.151715    -3.347687    0.299492    17.221060    -3.708828    -38.715523    49.606529    -45.552605    -0.328917    -4.316173    -16.603695    17.985695    -4.162338    1.277905    6.439936    18.525816    -3.211771    32.296120    48.299732    47.112995    -1.733850    -9.982133    17.339350    -18.336248    -9.302010    -2.635669    -0.861280    -12.664886    -6.224039    -0.197570    18.189974    -4.508998    -1.375792    -10.107958    -5.340379    -0.568719    -0.362174    0.630817    -5.518861    -5.275074    0.856188    3.039649    8.520920    5.125718    0.694002    -6.873592    -13.917744    -1.138010    -0.198910    1.231176    
